<svg xmlns="http://www.w3.org/2000/svg" version="1.1" xmlns:xlink="http://www.w3.org/1999/xlink" xmlns:svgjs="http://svgjs.dev/svgjs" width="1000" height="1000" viewBox="0 0 1000 1000"><rect width="1000" height="1000" fill="#161618"></rect><g transform="matrix(0.7,0,0,0.7,150,106.25)"><svg viewBox="0 0 320 360" data-background-color="#161618" preserveAspectRatio="xMidYMid meet" height="1125" width="1000" xmlns="http://www.w3.org/2000/svg" xmlns:xlink="http://www.w3.org/1999/xlink"><g id="tight-bounds" transform="matrix(1,0,0,1,0,0)"><svg viewBox="0 0 320 360" height="360" width="320"><g><svg></svg></g><g><svg viewBox="0 0 320 360" height="360" width="320"><g><path xmlns="http://www.w3.org/2000/svg" d="M39.474 120.804l2.852-5.236c22.696-41.686 66.871-69.977 117.674-69.972 50.817 0 95.006 28.305 117.697 70.005l2.852 5.241 8.173-31.337 31.03 7.961-2.654-4.792c-30.586-55.251-89.468-92.674-157.098-92.674-67.631 0-126.508 37.423-157.103 92.674l-2.654 4.787 31.063-7.956zM160 4.721c63.839 0 119.567 34.288 150.073 85.389l-24.731-6.341-6.417 24.608c-24.217-40.411-68.381-67.503-118.925-67.503-50.525 0-94.68 27.078-118.897 67.465l-6.412-24.575-24.764 6.341c30.506-51.101 86.238-85.384 150.073-85.384zM280.526 239.191l-2.852 5.236c-22.696 41.691-66.871 69.977-117.674 69.977-50.817 0-95.006-28.301-117.697-70.005l-2.852-5.236-8.173 31.332-31.035-7.961 2.654 4.792c30.591 55.246 89.468 92.674 157.103 92.674 67.631 0 126.513-37.427 157.103-92.674l2.654-4.787-31.063 7.956zM160 355.279c-63.839 0-119.567-34.288-150.073-85.389l24.727 6.346 6.421-24.609c24.217 40.402 68.381 67.499 118.925 67.499 50.529 0 94.68-27.078 118.901-67.47l6.408 24.575 24.764-6.341c-30.506 51.096-86.233 85.388-150.073 85.388z" fill="#ffffff" fill-rule="nonzero" stroke="none" stroke-width="1" stroke-linecap="butt" stroke-linejoin="miter" stroke-miterlimit="10" stroke-dasharray="" stroke-dashoffset="0" font-family="none" font-weight="none" font-size="none" text-anchor="none" style="mix-blend-mode: normal" data-fill-palette-color="tertiary"></path></g><g transform="matrix(1,0,0,1,83.69973999999999,117.10197729386891)"><svg viewBox="0 0 152.60052000000002 125.79604541226217" height="125.79604541226217" width="152.60052000000002"><g><svg viewBox="0 0 152.60052000000002 125.79604541226217" height="125.79604541226217" width="152.60052000000002"><g><svg viewBox="0 0 152.60052000000002 125.79604541226217" height="125.79604541226217" width="152.60052000000002"><g><path d="M0 125.796v-125.796h152.601v125.796z" fill="#ffffff" stroke="transparent" stroke-width="0" rx="0%" data-fill-palette-color="tertiary"></path><path d="M3.283 122.513v-119.23h146.034v119.23z" fill="#161618" stroke="transparent" stroke-width="0" rx="0%" data-fill-palette-color="quaternary"></path><path d="M9.85 115.946v-106.096h132.901v106.096z" fill="#ffffff" stroke="transparent" stroke-width="0" data-fill-palette-color="tertiary"></path></g><g transform="matrix(1,0,0,1,19.69974,19.69974)" id="textblocktransform"><svg viewBox="0 0 113.20104000000002 86.39656541226218" height="86.39656541226218" width="113.20104000000002" id="textblock"><g><svg viewBox="0 0 113.20104000000002 86.39656541226218" height="86.39656541226218" width="113.20104000000002"><g transform="matrix(1,0,0,1,0,0)"><svg width="113.20104000000002" viewBox="2.049999952316284 -35.5 47.29999923706055 36.099998474121094" height="86.39656541226218" data-palette-color="#161618"><path d="M2.65 0.3L2.65 0.3 2.05 0.3Q2.05-2.6 4.85-15.05 7.65-27.5 7.65-28.8L7.65-28.8Q7.65-30.9 6.1-32.8L6.1-32.8 5.6-33.45 5.75-34.45Q8.7-35.45 16.55-35.45L16.55-35.45Q17.35-33.65 17.4-31.2L17.4-31.2Q23.25-35.5 27.4-35.5L27.4-35.5Q32.15-35.5 33.05-31.4L33.05-31.4Q38.7-35.5 42.9-35.5L42.9-35.5Q45.75-35.5 47.55-33.93 49.35-32.35 49.35-29.38 49.35-26.4 47.18-18.07 45-9.75 45-6.25L45-6.25Q45-4.95 45.55-4.95L45.55-4.95Q46.6-4.95 48.1-5.55L48.1-5.55 49.15-2.7Q44.5 0.6 39.95 0.6L39.95 0.6Q37.8 0.6 36.5-0.7 35.2-2 35.2-4.53 35.2-7.05 37.27-15.53 39.35-24 39.35-25.85 39.35-27.7 38.9-28.33 38.45-28.95 37.15-28.95 35.85-28.95 33.05-27.05L33.05-27.05Q32.7-24.75 31.5-19.6L31.5-19.6Q28.35-6.45 28.35-0.95L28.35-0.95Q25.9 0.35 19.9 0.35L19.9 0.35 18.55 0.35Q18.55-4.25 20.9-14.05 23.25-23.85 23.25-25.8 23.25-27.75 22.83-28.35 22.4-28.95 21.08-28.95 19.75-28.95 16.9-27L16.9-27Q16.45-24.5 15.05-18.7L15.05-18.7Q11.8-5.15 11.8-1L11.8-1Q9.6 0.3 2.65 0.3Z" opacity="1" transform="matrix(1,0,0,1,0,0)" fill="#161618" class="wordmark-text-0" data-fill-palette-color="quaternary" id="text-0"></path></svg></g></svg></g></svg></g></svg></g><g></g></svg></g></svg></g></svg></g><defs></defs></svg><rect width="320" height="360" fill="none" stroke="none" visibility="hidden"></rect></g></svg></g></svg>