<svg xmlns="http://www.w3.org/2000/svg" version="1.1" xmlns:xlink="http://www.w3.org/1999/xlink" xmlns:svgjs="http://svgjs.dev/svgjs" width="1000" height="750" viewBox="0 0 1000 750"><rect width="1000" height="750" fill="#ff0000"></rect><g transform="matrix(0.409250175192712,0,0,0.409250175192712,295.05520968038195,83.23644968538565)"><svg viewBox="0 0 173 247" data-background-color="#ff0000" preserveAspectRatio="xMidYMid meet" height="1427" width="1000" xmlns="http://www.w3.org/2000/svg" xmlns:xlink="http://www.w3.org/1999/xlink"><g id="tight-bounds" transform="matrix(1,0,0,1,0.13514677231279393,-0.09999999999999432)"><svg viewBox="0 0 172.7297071129707 247.2" height="247.2" width="172.7297071129707"><g><svg viewBox="0 0 172.7297071129707 247.2" height="247.2" width="172.7297071129707"><g><svg viewBox="0 0 172.7297071129707 247.2" height="247.2" width="172.7297071129707"><g id="textblocktransform"><svg viewBox="0 0 172.7297071129707 247.2" height="247.2" width="172.7297071129707" id="textblock"><g><svg viewBox="0 0 172.7297071129707 247.2" height="247.2" width="172.7297071129707"><g transform="matrix(1,0,0,1,0,0)"><svg width="172.7297071129707" viewBox="4.150000095367432 -35.29999923706055 25.05000114440918 35.849998474121094" height="247.2" data-palette-color="#ffffff"><path d="M28.9-3.3Q29.2-2.7 29.2-2L29.2-2Q29.2-0.8 28.2-0.13 27.2 0.55 26.2 0.55L26.2 0.55Q24.35 0.55 23.28-0.63 22.2-1.8 21.15-4.4L21.15-4.4 18.85-10.3Q18.15-12 17.57-12.95 17-13.9 15.8-14.58 14.6-15.25 12.55-15.25L12.55-15.25 8.85-15.3 8.85-5.55Q8.85-4.35 9-2.8 9.15-1.25 9.5-0.35L9.5-0.35Q9.15 0 8.55 0.28 7.95 0.55 7.2 0.55L7.2 0.55Q6.15 0.55 5.5-0.05 4.85-0.65 4.8-1.65L4.8-1.65 4.8-28.85Q4.8-30.05 4.65-31.63 4.5-33.2 4.15-34.2L4.15-34.2Q6.25-35.3 11.5-35.3L11.5-35.3Q18.65-35.3 22.05-33.08 25.45-30.85 25.45-25.85L25.45-25.85Q25.45-22.25 23.38-19.75 21.3-17.25 17.8-16.35L17.8-16.35Q19.55-15.85 20.63-14.58 21.7-13.3 22.6-11.3L22.6-11.3 25.1-5.4Q25.7-3.95 26.25-3.33 26.8-2.7 27.45-2.65L27.45-2.65Q28.35-2.65 28.9-3.3L28.9-3.3ZM8.85-17.1L12.75-17.05Q16.4-17.15 18.73-19.45 21.05-21.75 21.05-25.5L21.05-25.5Q21.05-29.6 18.82-31.55 16.6-33.5 11.7-33.5L11.7-33.5Q9.75-33.5 8.85-33.35L8.85-33.35 8.85-17.1Z" opacity="1" transform="matrix(1,0,0,1,0,0)" fill="#ffffff" class="undefined-text-0" data-fill-palette-color="primary" id="text-0"></path></svg></g></svg></g></svg></g></svg></g></svg></g><defs></defs></svg><rect width="172.7297071129707" height="247.2" fill="none" stroke="none" visibility="hidden"></rect></g></svg></g></svg>