<svg xmlns="http://www.w3.org/2000/svg" version="1.1" xmlns:xlink="http://www.w3.org/1999/xlink" xmlns:svgjs="http://svgjs.dev/svgjs" width="1000" height="1000" viewBox="0 0 1000 1000"><rect width="1000" height="1000" fill="#010536"></rect><g transform="matrix(0.7,0,0,0.7,150,106.25)"><svg viewBox="0 0 320 360" data-background-color="#010536" preserveAspectRatio="xMidYMid meet" height="1125" width="1000" xmlns="http://www.w3.org/2000/svg" xmlns:xlink="http://www.w3.org/1999/xlink"><g id="tight-bounds" transform="matrix(1,0,0,1,0,0)"><svg viewBox="0 0 320 360" height="360" width="320"><g><svg></svg></g><g><svg viewBox="0 0 320 360" height="360" width="320"><g><path xmlns="http://www.w3.org/2000/svg" d="M320 141.95l-19.957-19.957v-28.224l-53.812-53.812h-28.223l-19.958-19.957h-76.1l-19.957 19.957h-28.224l-53.812 53.812v28.224l-19.957 19.957v76.104l19.957 19.958v28.223l53.816 53.808h28.224l19.957 19.957h76.104l19.958-19.957h28.223l53.812-53.812v-28.224l19.949-19.957zM244.374 44.437l51.189 51.189v21.887l-73.076-73.076zM295.563 123.849v112.306l-79.408 79.408h-112.306l-79.412-79.412v-112.302l79.412-79.412h112.306zM123.807 24.48h72.39l15.478 15.477h-103.346zM24.437 95.626l51.189-51.189h21.887l-73.076 73.076zM4.484 216.197v-72.394l15.477-15.478v103.342zM75.626 315.563l-51.189-51.189v-21.887l73.076 73.076zM196.197 335.52h-72.39l-15.478-15.477h103.342zM295.563 264.374l-51.189 51.189h-21.887l73.076-73.076zM315.52 216.197l-15.477 15.478v-103.346l15.477 15.478z" fill="#fbfbf8" fill-rule="nonzero" stroke="none" stroke-width="1" stroke-linecap="butt" stroke-linejoin="miter" stroke-miterlimit="10" stroke-dasharray="" stroke-dashoffset="0" font-family="none" font-weight="none" font-size="none" text-anchor="none" style="mix-blend-mode: normal" data-fill-palette-color="tertiary"></path></g><g transform="matrix(1,0,0,1,56,115.34374018849927)"><svg viewBox="0 0 208 129.31251962300146" height="129.31251962300146" width="208"><g><svg viewBox="0 0 209.03999999999996 129.95908222111646" height="129.31251962300146" width="208"><g><rect width="209.03999999999996" height="3.7175735450353957" x="0" y="66.70268013185625" fill="#fbfbf8" opacity="1" stroke-width="0" stroke="transparent" fill-opacity="1" class="rect-o-0" data-fill-palette-color="primary" rx="1%" id="o-0" data-palette-color="#fbfbf8"></rect></g><g><rect width="209.03999999999996" height="3.7175735450353957" x="0" y="75.28618763636207" fill="#fbfbf8" opacity="1" stroke-width="0" stroke="transparent" fill-opacity="1" class="rect-o-1" data-fill-palette-color="primary" rx="1%" id="o-1" data-palette-color="#fbfbf8"></rect></g><g transform="matrix(1,0,0,1,0.5199999999999818,88.73562910033829)"><svg viewBox="0 0 208 41.22345312077817" height="41.22345312077817" width="208"><g id="textblocktransform"><svg viewBox="0 0 208 41.22345312077817" height="41.22345312077817" width="208" id="textblock"><g><svg viewBox="0 0 208 41.22345312077817" height="41.22345312077817" width="208"><g transform="matrix(1,0,0,1,0,0)"><svg width="208" viewBox="2.8600001335144043 -35.81999969482422 180.6999969482422 35.81999969482422" height="41.22345312077817" data-palette-color="#fbfbf8"><path d="M22.09 0L2.88-32.4 14.36-32.4 23.05-17.99 29.88-29.71 29.88-13.4 22.09 0ZM42.26 0L31.47 0 31.47-32.4 42.26-32.4 42.26 0ZM12.94 0L2.86 0 2.86-29.39 12.94-12.48 12.94 0ZM58.23-25.93L58.23 0 53.9 0 47.43-6.47 47.43-19.46 53.9-25.93 58.23-25.93ZM75.56-10.4L59.93-10.4 59.93-14.92 65.62-14.92 65.62-19.46 59.93-19.46 59.93-25.93 69.09-25.93 75.56-19.46 75.56-10.4ZM71.21 0L59.93 0 59.93-6.05 74.44-6.05 74.44-3.25 71.21 0ZM90.72-25.93L90.72 0 86.4 0 79.93-6.47 79.93-19.46 86.4-25.93 90.72-25.93ZM108.05-10.4L92.43-10.4 92.43-14.92 98.12-14.92 98.12-19.46 92.43-19.46 92.43-25.93 101.58-25.93 108.05-19.46 108.05-10.4ZM103.71 0L92.43 0 92.43-6.05 106.93-6.05 106.93-3.25 103.71 0ZM123.72-32.4L123.72-6.47 130.85-6.47 130.85 0 119.43 0 112.93-6.47 112.93-19.46 110.78-19.46 110.78-25.93 112.93-25.93 112.93-28.74 123.72-32.4ZM131.24-19.46L125.43-19.46 125.43-25.93 131.24-25.93 131.24-19.46ZM152.07-25.93L162.86-25.93 162.86 0 152.07 0 152.07-25.93ZM145.55-25.93L145.55-6.47 150.36-6.47 150.36-3.25 147.23 0 141.25 0 134.76-6.47 134.76-25.93 145.55-25.93ZM183.56-6.47L183.56 0 173.99 0 167.93-6.05 167.93-35.82 178.72-35.82 178.72-6.47 183.56-6.47Z" opacity="1" transform="matrix(1,0,0,1,0,0)" fill="#fbfbf8" class="wordmark-text-0" data-fill-palette-color="primary" id="text-0"></path></svg></g></svg></g></svg></g></svg></g><g transform="matrix(1,0,0,1,77.11846716393796,0)"><svg viewBox="0 0 54.803065672124035 56.97081221291543" height="56.97081221291543" width="54.803065672124035"><g><svg xmlns="http://www.w3.org/2000/svg" xmlns:xlink="http://www.w3.org/1999/xlink" version="1.1" x="0" y="0" viewBox="18.322998046875 17.068994522094727 63.35498809814453 65.86100769042969" enable-background="new 0 0 100 100" xml:space="preserve" height="56.97081221291543" width="54.803065672124035" class="icon-icon-0" data-fill-palette-color="accent" id="icon-0"><g fill="#ffff00" data-fill-palette-color="accent"><path d="M41.086 21.513c0.172-0.39 0.271-0.819 0.271-1.273 0-1.748-1.422-3.17-3.17-3.17s-3.17 1.422-3.17 3.17 1.422 3.17 3.17 3.17c0.375 0 0.73-0.077 1.064-0.197l24.309 26.045-13.675 27.35c-0.06-0.003-0.117-0.018-0.178-0.018-1.748 0-3.17 1.422-3.17 3.17s1.422 3.17 3.17 3.17c1.748 0 3.17-1.422 3.17-3.17 0-0.777-0.292-1.479-0.757-2.031l14.064-28.13c0.233-0.467 0.152-1.03-0.204-1.412L41.086 21.513z" fill="#ffff00" data-fill-palette-color="accent"></path><path d="M58.506 49.599c0.24-0.481 0.146-1.062-0.234-1.442L31.527 21.412c0.146-0.363 0.23-0.757 0.23-1.172 0-1.748-1.422-3.17-3.17-3.17s-3.17 1.422-3.17 3.17 1.422 3.17 3.17 3.17c0.415 0 0.808-0.085 1.171-0.23l14.67 14.67c-0.029 0.024-0.065 0.034-0.092 0.061L31.114 51.134l-6.682-6.682c0.145-0.363 0.23-0.757 0.23-1.172 0-1.748-1.422-3.17-3.169-3.17-1.748 0-3.17 1.422-3.17 3.17 0 1.748 1.422 3.17 3.17 3.17 0.414 0 0.808-0.085 1.171-0.23l6.683 6.682-7.089 7.089c-0.088 0.088-0.142 0.193-0.198 0.297-0.287 0.229-0.482 0.566-0.482 0.962v6.018c-0.365 0.149-0.705 0.363-0.992 0.65-1.235 1.236-1.235 3.247 0 4.483 0.599 0.599 1.395 0.929 2.242 0.929s1.643-0.33 2.241-0.929c0.599-0.599 0.929-1.395 0.929-2.241s-0.33-1.643-0.929-2.242c-0.287-0.287-0.626-0.501-0.991-0.65v-5.562l22.028-22.028c0.027-0.027 0.037-0.063 0.061-0.092L48.9 42.32 27.704 63.516c-0.008 0.008-0.01 0.019-0.018 0.027-0.104 0.11-0.192 0.236-0.251 0.379-0.063 0.153-0.097 0.315-0.097 0.479v10.548c-0.365 0.149-0.705 0.363-0.992 0.65-1.236 1.235-1.236 3.247 0 4.483 0.599 0.599 1.395 0.928 2.242 0.928 0.847 0 1.643-0.329 2.241-0.928 1.236-1.236 1.236-3.247 0-4.483-0.287-0.287-0.626-0.501-0.991-0.65V64.917l20.83-20.83 5.199 5.199L42.206 76.608c-0.061-0.003-0.118-0.018-0.179-0.018-1.748 0-3.17 1.422-3.17 3.17s1.422 3.17 3.17 3.17c1.748 0 3.17-1.422 3.17-3.17 0-0.777-0.292-1.479-0.757-2.031L58.506 49.599z" fill="#ffff00" data-fill-palette-color="accent"></path><path d="M78.508 74.67c-0.257 0-0.503 0.039-0.742 0.097l-3.768-5.023V49.04c0-0.313-0.118-0.614-0.329-0.845l-8.208-8.954 6.114-6.114c0.363 0.146 0.757 0.231 1.172 0.231 1.748 0 3.169-1.422 3.169-3.17 0-1.748-1.422-3.17-3.169-3.17-1.748 0-3.17 1.422-3.17 3.17 0 0.415 0.085 0.808 0.23 1.171l-6.038 6.037-3.066-3.345 10.872-10.872c0.363 0.145 0.757 0.23 1.172 0.23 1.748 0 3.169-1.422 3.169-3.17s-1.422-3.17-3.169-3.17c-1.748 0-3.17 1.422-3.17 3.17 0 0.415 0.085 0.809 0.23 1.172L59.013 32.207l-6.135-6.693V23.15c1.127-0.486 1.92-1.607 1.92-2.911 0-1.748-1.422-3.17-3.17-3.17-1.748 0-3.17 1.422-3.17 3.17 0 1.304 0.792 2.425 1.92 2.911V26c0 0.061 0.026 0.114 0.035 0.172 0.014 0.095 0.021 0.189 0.057 0.279 0.033 0.086 0.088 0.156 0.139 0.231 0.035 0.053 0.053 0.114 0.098 0.162l20.792 22.682V70.16c0 0.271 0.087 0.534 0.25 0.75l4.021 5.362c-0.267 0.464-0.432 0.995-0.432 1.568 0 1.748 1.422 3.17 3.17 3.17 1.748 0 3.17-1.422 3.17-3.17S80.255 74.67 78.508 74.67z" fill="#ffff00" data-fill-palette-color="accent"></path></g></svg></g></svg></g><g></g></svg></g></svg></g></svg></g><defs></defs></svg><rect width="320" height="360" fill="none" stroke="none" visibility="hidden"></rect></g></svg></g></svg>